# xmcd
#
# Track frame offsets:
#	150
#	10841
#	30141
#	45496
#	54873
#	67722
#	77011
#	97561
#	113882
#	121035
#	127471
#	133643
#	145223
#	154543
#	182365
#	197008
#	207487
#	215394
#	234871
#	248441
#	261110
#	274439
#	294976
#	309647
#	333219
#	343783
#
# Disc length: 4750 seconds
#
# Revision: 1
# Processed by: cddbd v1.5.2PL0 Copyright (c) Steve Scherf et al.
# Submitted via: EZCDAudioConverter 5.2.1.1
#
DISCID=5b128c1a
DTITLE=Marc Brierley - Welcome To The Citadel
DYEAR=1968
DGENRE=Country
TTITLE0=The Answer Is
TTITLE1=Vagabond Of Sleep
TTITLE2=Matchbox Men
TTITLE3=Over The Hills
TTITLE4=Symphony
TTITLE5=Take Me For A Ride On Your Aeroplane
TTITLE6=Welcome To The Citadel
TTITLE7=Hold On, Hold On, The Garden Sure Looks Good Spread Out On The Floor
TTITLE8=Autograph Of Time (After All The Heat Was Hung)
TTITLE9=Sunlight Sleepers Song
TTITLE10=Making Love
TTITLE11=Time Itself
TTITLE12=And Who Would But Think
TTITLE13=Thoughts And Sounds
TTITLE14=A Time For Love
TTITLE15=Dragonfly
TTITLE16=Arctic City
TTITLE17=Rel's Song
TTITLE18=If You Leave Me Now
TTITLE19=Stay A Little Longer Merry Ann
TTITLE20=Flaxen Hair
TTITLE21=Godspeed
TTITLE22=Phoenix
TTITLE23=Powers Of Glory
TTITLE24=Hear Me Calling
TTITLE25=Don't Let The Bugs Bite
EXTD=
EXTT0=
EXTT1=
EXTT2=
EXTT3=
EXTT4=
EXTT5=
EXTT6=
EXTT7=
EXTT8=
EXTT9=
EXTT10=
EXTT11=
EXTT12=
EXTT13=
EXTT14=
EXTT15=
EXTT16=
EXTT17=
EXTT18=
EXTT19=
EXTT20=
EXTT21=
EXTT22=
EXTT23=
EXTT24=
EXTT25=
PLAYORDER=
